<?xml version="1.0" encoding="UTF-8" standalone="no"?>
<!-- Created with Inkscape (http://www.inkscape.org/) -->

<svg
   width="1096.1731"
   height="244.98109"
   viewBox="0 0 1096.1731 244.98109"
   version="1.1"
   id="svg1"
   xml:space="preserve"
   xmlns:inkscape="http://www.inkscape.org/namespaces/inkscape"
   xmlns:sodipodi="http://sodipodi.sourceforge.net/DTD/sodipodi-0.dtd"
   xmlns="http://www.w3.org/2000/svg"
   xmlns:svg="http://www.w3.org/2000/svg"><sodipodi:namedview
     id="namedview1"
     pagecolor="#ffffff"
     bordercolor="#999999"
     borderopacity="1"
     inkscape:showpageshadow="2"
     inkscape:pageopacity="0"
     inkscape:pagecheckerboard="0"
     inkscape:deskcolor="#d1d1d1"
     inkscape:document-units="px"><inkscape:page
       x="0"
       y="0"
       width="1096.1731"
       height="244.98109"
       id="page2"
       margin="0"
       bleed="0" /></sodipodi:namedview><defs
     id="defs1"><clipPath
       id="clip0_5164_1525"><rect
         width="107"
         height="24"
         fill="#ffffff"
         id="rect12"
         x="0"
         y="0" /></clipPath></defs><g
     inkscape:label="Layer 1"
     inkscape:groupmode="layer"
     id="layer1"
     transform="translate(-411.91345,-439.74073)"><g
       style="fill:#d8fe4e;fill-opacity:1"
       id="g1"
       transform="matrix(10.245744,0,0,10.245744,411.85342,439.28297)"><g
         clip-path="url(#clip0_5164_1525)"
         id="g12"
         style="fill:#d8fe4e;fill-opacity:1"><mask
           id="mask0_5164_1525"
           maskUnits="userSpaceOnUse"
           x="0"
           y="0"
           width="107"
           height="24"><path
             d="M 107,0 H 0 v 24 h 107 z"
             fill="#ffffff"
             id="path1" /></mask><g
           mask="url(#mask0_5164_1525)"
           id="g11"
           style="fill:#d8fe4e;fill-opacity:1"><path
             d="M 24.2832,5.49585 V 18.5261 h 2.8719 V 5.49585 Z"
             fill="#ffffff"
             id="path2"
             style="fill:#d8fe4e;fill-opacity:1" /><path
             d="m 36.465,5.3479 c -2.1964,0 -3.745,0.93439 -4.5935,2.70439 L 31.5222,5.49571 H 29.1504 V 18.526 h 2.9455 v -6.442 c 0,-4.02951 1.3122,-3.91171 4.3691,-3.90878 0.1249,0 0.4994,0.0161 0.4994,0.0161 V 5.3479 Z"
             fill="#ffffff"
             id="path3"
             style="fill:#d8fe4e;fill-opacity:1" /><path
             d="m 45.6769,5.10205 c -2.0969,0 -3.8193,1.00829 -4.6931,2.53244 L 40.6843,5.49571 H 38.3125 V 23.9552 h 2.9707 v -7.249 c 0.8991,1.3522 2.4714,2.1886 4.3692,2.1886 3.5199,0 5.992,-2.8522 5.992,-6.9578 0,-4.10568 -2.4721,-6.83495 -5.9675,-6.83495 z M 45.003,16.4113 c -3.1892,0 -3.7198,-0.5707 -3.7198,-4.5483 0,-3.97753 0.9504,-4.27095 3.6953,-4.27095 3.1238,0 3.6446,0.51073 3.6446,4.34495 0,3.8341 -0.5208,4.4743 -3.6201,4.4743 z"
             fill="#ffffff"
             id="path4"
             style="fill:#d8fe4e;fill-opacity:1" /><path
             d="m 60.0832,5.10297 c -1.2989,0 -2.4833,0.36146 -3.3728,1.02439 v 2.11756 c 0.3389,-0.34024 1.0515,-0.65268 2.0286,-0.65268 2.2745,0 3.0435,0.66073 3.0666,3.81436 v 7.121 h 2.9462 V 9.85322 c 0,-2.92537 -1.8472,-4.75025 -4.6686,-4.75025 z M 55.9414,11.2486 H 55.9391 V 6.85395 l -7e-4,-6.8092723 H 52.9922 V 18.5283 h 2.9462 v -6.0344 c 0,-0.4331 -0.003,-0.8502 0.003,-1.2453 z"
             fill="#ffffff"
             id="path5"
             style="fill:#d8fe4e;fill-opacity:1" /><path
             d="m 72.8904,5.10205 c -3.8698,0 -6.7908,2.53244 -6.7908,6.78585 0,4.0317 2.4967,7.0069 6.7908,7.0069 3.9449,0 6.7663,-2.6064 6.7663,-7.0069 0,-3.83561 -2.4967,-6.78585 -6.7663,-6.78585 z m 0,11.30925 c -3.0324,0 -3.7948,-0.3219 -3.7948,-4.5234 0,-4.20146 0.772,-4.29658 3.7948,-4.29658 3.0227,0 3.7702,0.30512 3.7702,4.29658 0,3.9915 -0.7319,4.5234 -3.7702,4.5234 z"
             fill="#ffffff"
             id="path6"
             style="fill:#d8fe4e;fill-opacity:1" /><path
             d="M 6.71937,2.54277 H 9.37951 V 0.0944824 H 6.52023 c -2.73519,0 -4.20198,1.3221976 -4.20198,3.7704876 V 5.49594 H 0.00585938 V 7.79789 H 2.31825 V 18.5189 H 5.25257 V 7.79789 H 9.08154 V 5.49594 H 5.25257 V 4.06107 c 0,-0.97976 0.52163,-1.5183 1.4668,-1.5183 z"
             fill="#ffffff"
             id="path7"
             style="fill:#d8fe4e;fill-opacity:1" /><path
             d="M 27.1558,0.0871582 H 24.2891 V 2.98325 h 2.8667 z"
             fill="#ffffff"
             id="path8"
             style="fill:#d8fe4e;fill-opacity:1" /><path
             d="m 88.0941,5.10303 c -1.972,0 -3.6446,0.95853 -4.4687,2.31073 L 83.3757,5.49595 H 81.0039 V 18.5262 h 2.9462 v -7.4254 c 0,-3.52167 1.657,-3.5085 3.0228,-3.5085 1.8465,0 2.8444,0.5539 2.8444,3.6563 v 7.2776 h 2.9455 V 9.89717 c 0,-2.92609 -1.8473,-4.79414 -4.6687,-4.79414 z"
             fill="#ffffff"
             id="path9"
             style="fill:#d8fe4e;fill-opacity:1" /><path
             d="m 97.0575,12.6006 h 9.9365 v -0.6885 c -0.075,-4.22859 -2.571,-6.81005 -6.316,-6.81005 -3.7453,0 -6.5667,2.65537 -6.5667,6.95785 0,3.9827 2.7716,6.8349 6.8157,6.8349 3.121,0 5.343,-1.6969 6.018,-4.4993 h -2.872 c -0.313,1.6654 -1.133,2.0151 -3.361,2.0151 -0.9096,0 -1.6081,-0.041 -2.1379,-0.2173 -1.0648,-0.3534 -1.4534,-1.2622 -1.5166,-3.5568 0,-0.0022 0,-0.0037 0,-0.0052 z m 0.0312,-2.0093 c 0.1806,-2.91144 1.3814,-2.91144 3.2343,-2.99559 0.037,-0.00146 0.273,-0.00585 0.355,-0.00366 2.023,0.06147 3.126,0.18147 3.271,2.99925 z"
             fill="#ffffff"
             id="path10"
             style="fill:#d8fe4e;fill-opacity:1" /><path
             d="M 9.38477,14.905 C 9.41003,11.8589 12.4781,11.2201 15.0483,10.9252 17.0442,10.7042 18.615,10.6281 18.5414,9.59864 18.4463,8.27059 17.6446,7.62229 15.8219,7.5923 14.0593,7.56303 12.9737,7.78986 12.6535,9.77059 H 9.68496 C 9.95915,7.01937 12.4543,5.10303 15.8724,5.10303 c 3.418,0 5.5387,1.91634 5.5387,4.69243 v 5.89604 c 0,0.3688 0.1999,0.5649 0.6487,0.5649 h 0.7237 v 2.2603 h -1.3969 c -1.3472,0 -2.1705,-0.5408 -2.3949,-1.5235 -0.0498,-0.1229 -0.0995,-0.2948 -0.1248,-0.4419 -0.7735,1.4005 -2.2203,2.3437 -4.4658,2.3437 -3.0435,0 -5.03938,-1.5578 -5.01486,-3.99 z m 9.29933,-1.2747 c 0.0513,-0.7646 0.049,-1.8622 0.049,-1.8622 -0.4993,0.7617 -1.9638,0.9754 -3.3615,1.1473 -1.6466,0.1969 -3.0191,0.4179 -3.0191,1.7935 0,1.1297 0.8939,1.7531 2.6446,1.7026 2.0612,-0.0592 3.4967,0.0469 3.687,-2.7812 z"
             fill="#ffffff"
             id="path11"
             style="fill:#d8fe4e;fill-opacity:1" /></g></g></g></g></svg>
